<svg width="512" height="512" viewBox="0 0 512 512" fill="none" xmlns="http://www.w3.org/2000/svg">
  <rect width="512" height="512" rx="120" fill="#1D416E"/>
  <path d="M346 124H204C180.804 124 162 142.804 162 166V346C162 369.196 180.804 388 204 388H308C331.196 388 350 369.196 350 346V228L346 124Z" fill="white"/>
  <path d="M308 124V198C308 214.569 321.431 228 338 228H350L308 124Z" fill="#3DB2A4"/>
  <rect x="204" y="236" width="104" height="18" rx="9" fill="#3DB2A4"/>
  <rect x="204" y="274" width="82" height="18" rx="9" fill="#3DB2A4"/>
  <rect x="204" y="312" width="96" height="18" rx="9" fill="#DCEEEB"/>
  <circle cx="356" cy="356" r="58" fill="#3DB2A4"/>
  <text x="356" y="376" text-anchor="middle" font-family="Arial, Helvetica, sans-serif" font-size="78" font-weight="700" fill="white">S</text>
</svg>
